Ernst, Bobbie en het Geheim van Monta Rossa (2010) DivX       


Nederland
Familie
73 minuten

geregisseerd door Pieter Walther Boer
met Gert-Jan van den Ende en Erik van Trommel

Als Ernst en Bobbie op bezoek zijn bij een circusschool slaat het noodlot toe en brandt de circusschool af. Om het bestaan van de school te redden moeten Ernst en Bobbie een schat opsporen. Terwijl zij via een speurtocht langs de gekste plekken op zoek gaan naar de schat, wordt de circusdirectrice ook nog ontvoerd. Op de hielen gezeten door crimineel Fedor en zijn nichtje Indy, doorstaan zij spannende en gevaarlijke avonturen die een spectaculaire climax bereiken op de top van de Monta Rossa. Lukt het Ernst en Bobbie om samen met de kinderen van de circusschool de directrice en de schat te redden?
 
http://moviemeter.nl/film/66515

English

Storyline
When Ernst & Bobbie visit a circusschool, a fire brakes out And a treasure is hidden but we don't know where.... But they find a film print that contains instructions where it is. A search to the treasure starts and hilarious adventures, more film prints with instructions appear. They entounter criminals Fedor and Indy on their way, travel with steam trains, and finally in the Mountains of Belgium they find the treasure on top of the mountain Monta Rossa. Just in time before Fedor and Indy arrive. They bring the treasure to the director of the circusschool, she now can start rebuilding the school!

 
http://www.imdb.com/title/tt1669786/


 
Genre : Familiefilm
 



Spotinformatie 
Categorie : Beeld 
Formaat : DivX
Bron : Retail
 
Ondertitels : Geen
 
Genre : Kinderfilm
 Format                           : AVI
Format/Info                      : Audio Video Interleave
File size                        : 697 MiB
Duration                         : 1h 9mn
Overall bit rate                 : 1 403 Kbps
Writing application              : FairUse Wizard - http://fairusewizard.com
Writing library                  : The best and REALLY easy backup tool

Video
ID                               : 0
Format                           : MPEG-4 Visual
Format profile                   : Streaming Video@L1
Format settings, BVOP            : Yes
Format settings, QPel            : No
Format settings, GMC             : No warppoints
Format settings, Matrix          : Default (H.263)
Muxing mode                      : Packed bitstream
Codec ID                         : XVID
Codec ID/Hint                    : XviD
Duration                         : 1h 9mn
Bit rate                         : 1 265 Kbps
Width                            : 688 pixels
Height                           : 384 pixels
Display aspect ratio             : 16/9
Frame rate                       : 25.000 fps
Resolution                       : 24 bits
Colorimetry                      : 4:2:0
Scan type                        : Progressive
Bits/(Pixel*Frame)               : 0.192
Stream size                      : 629 MiB (90%)
Writing library                  : XviD 1.2.0.dev47 (UTC 2006-11-01)

Audio
ID                               : 1
Format                           : MPEG Audio
Format version                   : Version 1
Format profile                   : Layer 3
Codec ID                         : 55
Codec ID/Hint                    : MP3
Duration                         : 1h 9mn
Bit rate mode                    : Constant
Bit rate                         : 128 Kbps
Channel(s)                       : 2 channels
Sampling rate                    : 48.0 KHz
Resolution                       : 16 bits
Stream size                      : 63.6 MiB (9%)
Alignment                        : Aligned on interleaves
Interleave, duration             : 40 ms (1.00 video frame)
Interleave, preload duration     : 504 ms
Writing library                  : LAME3.97 
Encoding settings                : -m j -V 4 -q 2 -lowpass 17 -b 128

 

TBS

Black-Sam